<?xml version="1.0" encoding="UTF-8"?>
<svg width="636px" height="269px" viewBox="0 0 636 269" version="1.1" xmlns="http://www.w3.org/2000/svg" xmlns:xlink="http://www.w3.org/1999/xlink">
    <!-- Generator: Sketch 48.2 (47327) - http://www.bohemiancoding.com/sketch -->
    <title>Page 1 Copy 2</title>
    <desc>Created with Sketch.</desc>
    <defs></defs>
    <g id="Desktop-HD" stroke="none" stroke-width="1" fill="none" fill-rule="evenodd" transform="translate(-400.000000, -268.000000)">
        <g id="Page-1-Copy-2" transform="translate(400.570000, 266.918971)" fill="#FEFEFE">
            <polygon id="Fill-1" points="111.207141 71.5794043 77.4126482 166.901668 42.1725432 71.5794043 -0.00033055159 71.5794043 58.0588526 213.69345 96.4744566 213.69345 151.645721 71.5794043"></polygon>
            <g id="Group-8" transform="translate(155.359247, 0.879267)">
                <path d="M5.4529994,212.813521 L43.8697052,212.813521 L43.8697052,70.699476 L5.4529994,70.699476 L5.4529994,212.813521 Z M24.5170115,0.222571404 C37.8040835,0.222571404 48.2032366,10.911508 48.2032366,24.1985801 C48.2032366,36.9049832 37.8040835,47.5939198 24.5170115,47.5939198 C11.5186211,47.5939198 0.831888169,36.9049832 0.831888169,24.1985801 C0.831888169,10.911508 11.5186211,0.222571404 24.5170115,0.222571404 Z" id="Fill-2"></path>
                <path d="M61.0914431,212.813521 L99.5070471,212.813521 L99.5070471,70.699476 L61.0914431,70.699476 L61.0914431,212.813521 Z M80.1543533,0.222571404 C93.4414254,0.222571404 103.840578,10.911508 103.840578,24.1985801 C103.840578,36.9049832 93.4414254,47.5939198 80.1543533,47.5939198 C67.1559629,47.5939198 56.46923,36.9049832 56.46923,24.1985801 C56.46923,10.911508 67.1559629,0.222571404 80.1543533,0.222571404 Z" id="Fill-4"></path>
                <path d="M189.776279,101.321004 C170.424687,101.321004 154.247492,115.473019 154.247492,141.466495 C154.247492,167.174594 170.424687,181.907278 189.776279,181.907278 C209.418756,181.907278 225.016384,167.464377 225.016384,141.466495 C225.016384,115.473019 209.418756,101.321004 189.776279,101.321004 Z M116.987717,212.813852 L116.987717,3.69038814 L154.825958,3.69038814 L154.825958,86.2985361 C161.181363,76.1891666 176.780092,66.9458423 197.865978,66.9458423 C239.460387,66.9458423 263.434192,99.0093466 263.434192,141.181118 C263.434192,184.218936 236.858946,216.281338 196.419264,216.281338 C176.780092,216.281338 161.758726,207.614275 154.247492,195.483032 L154.247492,212.813852 L116.987717,212.813852 Z" id="Fill-5"></path>
                <polygon id="Fill-6" points="275.526871 214.259133 313.942475 214.259133 313.942475 5.13566987 275.526871 5.13566987"></polygon>
                <polygon id="Fill-7" points="349.787159 268.848406 383.576142 195.483583 322.923231 70.7003574 365.96215 70.7003574 403.801492 153.888072 438.752915 70.7003574 479.768859 70.7003574 390.513318 268.848406"></polygon>
            </g>
        </g>
    </g>
</svg>